<mxfile host="app.diagrams.net" modified="2020-10-31T06:58:17.236Z" agent="5.0 (Windows NT 10.0; Win64; x64) AppleWebKit/537.36 (KHTML, like Gecko) Chrome/86.0.4240.111 Safari/537.36" etag="5xHAObPEKgOAZrQYjeXx" version="13.8.8" type="github">
  <diagram id="1LvMavB6wDN4wssYBmKj" name="Page-1">
    <mxGraphModel dx="2062" dy="1122" grid="1" gridSize="10" guides="1" tooltips="1" connect="1" arrows="1" fold="1" page="1" pageScale="1" pageWidth="850" pageHeight="1100" math="0" shadow="0">
      <root>
        <mxCell id="0" />
        <mxCell id="1" parent="0" />
        <mxCell id="dVzL9pBZIhDrQwUzfbI6-1" value="HOME/about" style="rounded=0;whiteSpace=wrap;html=1;" vertex="1" parent="1">
          <mxGeometry x="380" y="240" width="120" height="60" as="geometry" />
        </mxCell>
        <mxCell id="dVzL9pBZIhDrQwUzfbI6-2" value="Blog" style="rounded=0;whiteSpace=wrap;html=1;" vertex="1" parent="1">
          <mxGeometry x="610" y="370" width="120" height="60" as="geometry" />
        </mxCell>
        <mxCell id="dVzL9pBZIhDrQwUzfbI6-3" value="experience" style="rounded=0;whiteSpace=wrap;html=1;" vertex="1" parent="1">
          <mxGeometry x="170" y="390" width="120" height="60" as="geometry" />
        </mxCell>
        <mxCell id="dVzL9pBZIhDrQwUzfbI6-5" value="attachments" style="rounded=0;whiteSpace=wrap;html=1;" vertex="1" parent="1">
          <mxGeometry x="390" y="520" width="120" height="60" as="geometry" />
        </mxCell>
        <mxCell id="dVzL9pBZIhDrQwUzfbI6-6" value="" style="endArrow=classic;startArrow=classic;html=1;entryX=0;entryY=0.75;entryDx=0;entryDy=0;exitX=1.033;exitY=0.633;exitDx=0;exitDy=0;exitPerimeter=0;" edge="1" parent="1" source="dVzL9pBZIhDrQwUzfbI6-1" target="dVzL9pBZIhDrQwUzfbI6-1">
          <mxGeometry width="50" height="50" relative="1" as="geometry">
            <mxPoint x="390" y="210" as="sourcePoint" />
            <mxPoint x="450" y="450" as="targetPoint" />
            <Array as="points">
              <mxPoint x="740" y="400" />
              <mxPoint x="510" y="560" />
              <mxPoint x="390" y="560" />
              <mxPoint x="230" y="450" />
              <mxPoint x="180" y="420" />
              <mxPoint x="220" y="390" />
            </Array>
          </mxGeometry>
        </mxCell>
      </root>
    </mxGraphModel>
  </diagram>
</mxfile>
